# xmcd
# 
# Track frame offsets:
#     150
#     16550
#     33141
#     44457
#     55745
#     66477
#     83541
#     101633
#     111116
#     126213
#     137936
# 
# Disc length: 2079
# 
# Revision: 2
# Processed by: cddbd v1.5.2PL0 Copyright (c) Steve Scherf et al.
# Submitted via: fre:ac v1.0.31
# 
DISCID=8b081d0b
DTITLE=Christmas - Connie Smith Joy To The World
DYEAR=2017
DGENRE=Christmas
TTITLE0=What Child Is This
TTITLE1=O Holy Night
TTITLE2=Go Tell It On The Mountain
TTITLE3=The First Noel
TTITLE4=The Little Drummer Boy
TTITLE5=Sweet Little Jesus Boy
TTITLE6=Away In A Manger-Silent Night
TTITLE7=Joy To The World
TTITLE8=O Come All Ye Faithful
TTITLE9=While Shepherds Watched Their Flocks
TTITLE10=Silent Night, Holy Night (Willie Nelson)
EXTD=
EXTT0=
EXTT1=
EXTT2=
EXTT3=
EXTT4=
EXTT5=
EXTT6=
EXTT7=
EXTT8=
EXTT9=
EXTT10=
PLAYORDER=
